<svg xmlns="http://www.w3.org/2000/svg" viewBox="0 0 553.41 118.64"><defs><style>.cls-1{fill:#27273f;}.cls-2{fill:#55f29f;}.cls-3{fill:#292a2b;}</style></defs><g id="Capa_2" data-name="Capa 2"><g id="C_" data-name="C+"><path class="cls-1" d="M23.72,34.35a15.5,15.5,0,0,0,16-1.12,41,41,0,0,1,47.5,0A15.4,15.4,0,1,0,103.18,7a15.55,15.55,0,0,0-16,1.12,41.37,41.37,0,0,1-23.75,7.57A41.37,41.37,0,0,1,39.7,8.11,15.39,15.39,0,0,0,15.4,20.67,15.51,15.51,0,0,0,23.72,34.35Z"></path><path class="cls-1" d="M26.28,73A15.4,15.4,0,0,0,15.4,46.69a15.4,15.4,0,1,0,0,30.79A15.6,15.6,0,0,0,26.28,73Z"></path><path class="cls-1" d="M103.18,89.59a15.5,15.5,0,0,0-16,1.12,41,41,0,0,1-47.5,0,15.39,15.39,0,1,0,0,25.11,41,41,0,0,1,47.5,0,15.4,15.4,0,1,0,16-26.23Z"></path><path class="cls-1" d="M127.58,48.22A15.51,15.51,0,0,0,111.31,50,30.81,30.81,0,0,1,73,50a15.39,15.39,0,1,0,0,24.12,30.77,30.77,0,0,1,38.29,0,15.4,15.4,0,1,0,16.27-25.93Zm-.88,15.57h-3.9v4.38A1.81,1.81,0,0,1,121,70h-.17A1.81,1.81,0,0,1,119,68.17V63.79h-3.9a1.81,1.81,0,1,1,0-3.62H119v-4.4A1.82,1.82,0,0,1,120.82,54H121a1.82,1.82,0,0,1,1.81,1.82v4.4h3.9a1.81,1.81,0,0,1,0,3.62Z"></path></g><g id="Capa_4" data-name="Capa 4"><rect class="cls-2" x="151.41" y="82.64" width="402" height="36"></rect><path class="cls-1" d="M159.8,69.23a.71.71,0,0,1-.7.69h-3.7a.71.71,0,0,1-.7-.69V41.86a.72.72,0,0,1,.7-.7h3.7a.72.72,0,0,1,.7.7Z"></path><path class="cls-1" d="M159.1,70.42h-3.7a1.21,1.21,0,0,1-1.2-1.19V41.86a1.22,1.22,0,0,1,1.2-1.2h3.7a1.22,1.22,0,0,1,1.2,1.2V69.23A1.21,1.21,0,0,1,159.1,70.42Zm-3.7-28.76a.23.23,0,0,0-.2.2V69.23a.22.22,0,0,0,.2.19h3.7a.22.22,0,0,0,.2-.19V41.86a.23.23,0,0,0-.2-.2Z"></path><path class="cls-1" d="M176.43,8.12c-.26.11-.4.07-.52-.19-1.57-3.34-4.84-5.29-9.29-5.29-6.42,0-10.21,4.08-10.21,10.69S160.2,24,166.62,24c4.45,0,7.75-1.91,9.33-5.25.11-.26.26-.3.52-.19l1.61.81c.26.11.3.3.19.55-2.06,4.37-6.51,6.72-11.65,6.72-7.38,0-13-4.66-13-13.33S159.24,0,166.62,0c5.26,0,9.55,2.28,11.65,6.72.11.26.07.44-.19.55Z"></path><path class="cls-1" d="M196.85,12.05a.36.36,0,0,1,.4.4v1.84a.37.37,0,0,1-.4.4H186v8.89h13.3a.37.37,0,0,1,.4.4v1.84a.36.36,0,0,1-.4.4H183.63a.37.37,0,0,1-.41-.4V.92a.37.37,0,0,1,.41-.41h15.68a.37.37,0,0,1,.4.41V2.75a.37.37,0,0,1-.4.41H186v8.89Z"></path><path class="cls-1" d="M204.85.92a.37.37,0,0,1,.41-.41h2a.82.82,0,0,1,.66.33l15.79,20.79V.92a.37.37,0,0,1,.41-.41h2a.37.37,0,0,1,.4.41v24.9a.36.36,0,0,1-.4.4h-2a.73.73,0,0,1-.66-.33L207.64,5.07V25.82a.36.36,0,0,1-.4.4h-2a.37.37,0,0,1-.41-.4Z"></path><path class="cls-1" d="M248.34.51a.37.37,0,0,1,.4.41V2.75a.37.37,0,0,1-.4.41h-7.13V25.82a.36.36,0,0,1-.4.4h-2a.36.36,0,0,1-.4-.4V3.16h-7.13a.37.37,0,0,1-.4-.41V.92a.37.37,0,0,1,.4-.41Z"></path><path class="cls-1" d="M253.14.92a.37.37,0,0,1,.41-.41h9c4.92,0,8.93,3,8.93,8.89,0,4.7-2.5,7.49-5.92,8.49l5.62,8a.21.21,0,0,1-.18.33h-2.57a.73.73,0,0,1-.63-.33l-5.25-7.6h-6.57v7.53a.37.37,0,0,1-.41.4h-2a.37.37,0,0,1-.41-.4Zm2.8,2.24V15.65h6.57c3.93,0,6.13-2.24,6.13-6.25,0-4.22-2.57-6.24-6.13-6.24Z"></path><path class="cls-1" d="M301.48,13.41c0,8.77-5.62,13.33-13,13.33s-13-4.56-13-13.33S281.09,0,288.47,0,301.48,4.63,301.48,13.41Zm-2.79,0c0-6.76-3.75-10.77-10.22-10.77s-10.21,4-10.21,10.77S282,24.09,288.47,24.09,298.69,20.16,298.69,13.41Z"></path><path class="cls-1" d="M326.71.51c7.08,0,12.48,4.34,12.48,12.86s-5.4,12.85-12.48,12.85H318a.37.37,0,0,1-.41-.4V.92A.37.37,0,0,1,318,.51Zm0,23.07c6.13,0,9.69-3.71,9.69-10.21s-3.75-10.21-9.69-10.21h-6.29V23.58Z"></path><path class="cls-1" d="M358,12.05a.36.36,0,0,1,.4.4v1.84a.36.36,0,0,1-.4.4H347.12v8.89h13.3a.36.36,0,0,1,.4.4v1.84a.36.36,0,0,1-.4.4H344.74a.37.37,0,0,1-.41-.4V.92a.37.37,0,0,1,.41-.41h15.68a.37.37,0,0,1,.4.41V2.75a.37.37,0,0,1-.4.41h-13.3v8.89Z"></path><path class="cls-1" d="M170.77,41.16a1.27,1.27,0,0,1,1.11.58l14.38,19.51V41.86a.72.72,0,0,1,.7-.7h3.7a.72.72,0,0,1,.7.7V69.23a.71.71,0,0,1-.7.69H187a1.26,1.26,0,0,1-1.11-.57L171.47,49.87V69.23a.71.71,0,0,1-.7.69h-3.7a.71.71,0,0,1-.7-.69V41.86a.72.72,0,0,1,.7-.7Z"></path><path class="cls-1" d="M190.66,70.42H187a1.76,1.76,0,0,1-1.53-.79L172,51.39V69.23a1.21,1.21,0,0,1-1.2,1.19h-3.7a1.21,1.21,0,0,1-1.2-1.19V41.86a1.22,1.22,0,0,1,1.2-1.2h3.7a1.77,1.77,0,0,1,1.53.8l13.46,18.27V41.86a1.22,1.22,0,0,1,1.2-1.2h3.7a1.22,1.22,0,0,1,1.2,1.2V69.23A1.21,1.21,0,0,1,190.66,70.42ZM171.47,49.37a.51.51,0,0,1,.4.2l14.38,19.48a.79.79,0,0,0,.71.37h3.7a.22.22,0,0,0,.2-.19V41.86a.23.23,0,0,0-.2-.2H187a.23.23,0,0,0-.2.2V61.25a.51.51,0,0,1-.34.48.52.52,0,0,1-.56-.18L171.48,42a.79.79,0,0,0-.71-.37h-3.7a.23.23,0,0,0-.2.2V69.23a.22.22,0,0,0,.2.19h3.7a.22.22,0,0,0,.2-.19V49.87a.5.5,0,0,1,.34-.47A.45.45,0,0,1,171.47,49.37Z"></path><path class="cls-1" d="M196.57,41.82a.45.45,0,0,1,.41-.66h4.15a1,1,0,0,1,1,.66l9.16,21.78,9.16-21.78a1,1,0,0,1,1-.66h4.15a.47.47,0,0,1,.41.66L214.32,69.27a1,1,0,0,1-1,.65h-4.11a1,1,0,0,1-1-.65Z"></path><path class="cls-1" d="M213.33,70.42h-4.11a1.47,1.47,0,0,1-1.45-1L196.11,42a.93.93,0,0,1,0-.9,1,1,0,0,1,.82-.46h4.15a1.47,1.47,0,0,1,1.46,1l8.69,20.66L220,41.62a1.46,1.46,0,0,1,1.45-1h4.15a.93.93,0,0,1,.77.4,1,1,0,0,1,.11.93L214.78,69.46A1.46,1.46,0,0,1,213.33,70.42ZM197.05,41.66,208.7,69.07a.47.47,0,0,0,.52.35h4.11c.36,0,.47-.17.52-.32l11.68-27.48-4.1,0a.49.49,0,0,0-.52.33l-9.17,21.8a.52.52,0,0,1-.92,0L201.66,42a.5.5,0,0,0-.53-.35Zm-.07,0Z"></path><path class="cls-1" d="M247.07,53.08a.71.71,0,0,1,.69.7v3.53a.71.71,0,0,1-.69.7H236.3v7h13.52a.72.72,0,0,1,.7.7v3.54a.71.71,0,0,1-.7.69H231.9a.71.71,0,0,1-.7-.69V41.86a.72.72,0,0,1,.7-.7h17.92a.72.72,0,0,1,.7.7v3.53a.72.72,0,0,1-.7.7H236.3v7Z"></path><path class="cls-1" d="M249.82,70.42H231.9a1.21,1.21,0,0,1-1.2-1.19V41.86a1.22,1.22,0,0,1,1.2-1.2h17.92a1.22,1.22,0,0,1,1.2,1.2v3.53a1.22,1.22,0,0,1-1.2,1.2h-13v6h10.27a1.21,1.21,0,0,1,1.19,1.2v3.53a1.21,1.21,0,0,1-1.19,1.2H236.8v6h13a1.22,1.22,0,0,1,1.2,1.2v3.54A1.21,1.21,0,0,1,249.82,70.42ZM231.9,41.66a.23.23,0,0,0-.2.2V69.23a.22.22,0,0,0,.2.19h17.92a.22.22,0,0,0,.2-.19V65.69a.23.23,0,0,0-.2-.2H236.3a.5.5,0,0,1-.5-.5V58a.5.5,0,0,1,.5-.5h10.77a.22.22,0,0,0,.19-.2V53.78a.21.21,0,0,0-.19-.2H236.3a.5.5,0,0,1-.5-.5v-7a.5.5,0,0,1,.5-.5h13.52a.22.22,0,0,0,.2-.2V41.86a.23.23,0,0,0-.2-.2Z"></path><path class="cls-1" d="M258.65,61.54a.68.68,0,0,1,.82.49c.78,2.47,2.92,3.58,6.21,3.58,3.65,0,5.05-2.22,5.05-3.7.16-6.29-15.45-2.38-15.45-12.9,0-5.88,4.93-8.43,10.27-8.43,5,0,9,2.14,10.23,6.87a.7.7,0,0,1-.49.9l-3.16.9a.68.68,0,0,1-.91-.45c-.94-2.18-2.54-3.33-5.67-3.33-2.71,0-5.3,1-5.3,3.5,0,5.87,15.57,2.05,15.57,12.94,0,5.34-4.56,8.59-10.14,8.59-5,0-9.74-2.34-10.73-7.19a.71.71,0,0,1,.53-.91Z"></path><path class="cls-1" d="M265.68,71c-5.88,0-10.28-3-11.22-7.59a1.21,1.21,0,0,1,.89-1.49l3.15-.86a1,1,0,0,1,.79.06,1.31,1.31,0,0,1,.66.76c.69,2.17,2.56,3.23,5.73,3.23s4.55-2,4.55-3.2c.06-2.25-2.18-3-5.83-4-4.29-1.17-9.62-2.63-9.62-8.93,0-6.59,5.8-8.93,10.77-8.93,5.65,0,9.56,2.64,10.72,7.25a1.21,1.21,0,0,1-.82,1.5l-3.19.91a1.16,1.16,0,0,1-1.49-.73c-.93-2.13-2.49-3-5.22-3-2.32,0-4.8.79-4.8,3,0,2,2.15,2.68,5.64,3.62,4.43,1.18,9.93,2.66,9.93,9.32C276.32,67.26,272,71,265.68,71Zm-6.85-9h-.05l-3.16.87c-.15,0-.22.07-.18.33,1,5,6.15,6.78,10.24,6.78,5.68,0,9.64-3.33,9.64-8.09,0-5.89-4.88-7.2-9.18-8.36-3.29-.88-6.39-1.71-6.39-4.58,0-2.43,2.28-4,5.8-4,3.15,0,5,1.12,6.13,3.63.11.24.15.22.3.18l3.17-.91a.21.21,0,0,0,.15-.29c-1-4.13-4.59-6.5-9.75-6.5-4.72,0-9.77,2.09-9.77,7.93,0,5.54,4.51,6.77,8.88,8,3.42.93,6.65,1.82,6.57,5,0,1.61-1.51,4.19-5.55,4.19-3.61,0-5.86-1.32-6.69-3.92A.24.24,0,0,0,258.83,62Zm-.18-.47h0Z"></path><path class="cls-1" d="M298.5,41.16a.72.72,0,0,1,.7.7v3.57a.72.72,0,0,1-.7.7h-7.15v23.1a.71.71,0,0,1-.7.69H287a.71.71,0,0,1-.7-.69V46.13h-7.15a.72.72,0,0,1-.7-.7V41.86a.72.72,0,0,1,.7-.7Z"></path><path class="cls-1" d="M290.65,70.42H287a1.21,1.21,0,0,1-1.2-1.19V46.63h-6.65a1.22,1.22,0,0,1-1.2-1.2V41.86a1.22,1.22,0,0,1,1.2-1.2H298.5a1.22,1.22,0,0,1,1.2,1.2v3.57a1.22,1.22,0,0,1-1.2,1.2h-6.65v22.6A1.21,1.21,0,0,1,290.65,70.42ZM279.11,41.66a.22.22,0,0,0-.2.2v3.57a.22.22,0,0,0,.2.2h7.15a.51.51,0,0,1,.5.5v23.1a.21.21,0,0,0,.2.19h3.69a.21.21,0,0,0,.2-.19V46.13a.51.51,0,0,1,.5-.5h7.15a.22.22,0,0,0,.2-.2V41.86a.22.22,0,0,0-.2-.2Z"></path><path class="cls-1" d="M309.22,69.23a.7.7,0,0,1-.69.69h-3.7a.71.71,0,0,1-.7-.69V41.86a.72.72,0,0,1,.7-.7h3.7a.71.71,0,0,1,.69.7Z"></path><path class="cls-1" d="M308.53,70.42h-3.7a1.21,1.21,0,0,1-1.2-1.19V41.86a1.22,1.22,0,0,1,1.2-1.2h3.7a1.21,1.21,0,0,1,1.19,1.2V69.23A1.2,1.2,0,0,1,308.53,70.42Zm-3.7-28.76a.23.23,0,0,0-.2.2V69.23a.21.21,0,0,0,.2.19h3.7a.21.21,0,0,0,.19-.19V41.86a.21.21,0,0,0-.19-.2Z"></path><path class="cls-1" d="M343.37,54.64a.72.72,0,0,1,.7.7v.2c0,9.86-6.29,15-14.55,15S315,65.4,315,55.54s6.29-15,14.55-15c5.8,0,10.4,2.43,12.91,7.36a.71.71,0,0,1-.29,1l-3.29,1.6a.64.64,0,0,1-.9-.29c-1.77-3.53-5.47-4.68-8.43-4.68-4.11,0-9.45,2.17-9.45,10s5.34,10,9.45,10c3.33,0,7.32-1.4,8.84-6H327.71a.71.71,0,0,1-.69-.7V55.34a.71.71,0,0,1,.69-.7Z"></path><path class="cls-1" d="M329.52,71c-9.28,0-15-5.92-15-15.46s5.77-15.46,15-15.46c6.2,0,10.81,2.64,13.35,7.63a1.13,1.13,0,0,1,.12.8,1.34,1.34,0,0,1-.59.8l-3.33,1.63a1.06,1.06,0,0,1-.83.1,1.2,1.2,0,0,1-.74-.62c-2.05-4.09-6.62-4.4-8-4.4-2.1,0-8.95.68-8.95,9.52s6.85,9.53,8.95,9.53c1.87,0,6.26-.5,8.12-5h-9.93a1.21,1.21,0,0,1-1.19-1.2V55.34a1.21,1.21,0,0,1,1.19-1.2h15.66a1.22,1.22,0,0,1,1.2,1.2v.2C344.57,65.08,338.8,71,329.52,71Zm0-29.92c-8.66,0-14,5.54-14,14.46S320.86,70,329.52,70s14.05-5.54,14.05-14.46v-.2a.22.22,0,0,0-.2-.2H327.71a.21.21,0,0,0-.19.2v3.53a.21.21,0,0,0,.19.2h10.65a.49.49,0,0,1,.4.21.48.48,0,0,1,.07.45c-1.89,5.72-7.14,6.34-9.31,6.34-4.81,0-9.95-2.77-9.95-10.53S324.71,45,329.52,45c1.5,0,6.57.35,8.87,5a.22.22,0,0,0,.12.09l.12,0,3.29-1.6a.34.34,0,0,0,.09-.16s0-.1,0-.11C339.62,43.53,335.32,41.08,329.52,41.08Z"></path><path class="cls-1" d="M358.49,41.82a1,1,0,0,1,1-.66h4.11a1,1,0,0,1,1,.66l11.67,27.45a.46.46,0,0,1-.41.65h-4.15a1,1,0,0,1-1-.65l-2.14-5.1H354.5l-2.14,5.1a1,1,0,0,1-1,.65h-4.15a.44.44,0,0,1-.41-.65Zm-1.94,17.42h9.91l-4.93-11.75Z"></path><path class="cls-1" d="M375.83,70.42h-4.15a1.47,1.47,0,0,1-1.46-1l-2-4.77H354.83l-2,4.79a1.44,1.44,0,0,1-1.44,1h-4.15a1,1,0,0,1-.83-.45,1,1,0,0,1,0-.93L358,41.63a1.46,1.46,0,0,1,1.45-1h4.11a1.47,1.47,0,0,1,1.46,1L376.7,69.07a1,1,0,0,1-.1,1A.92.92,0,0,1,375.83,70.42ZM359.47,41.66A.47.47,0,0,0,359,42v0L347.28,69.46l4.1,0a.46.46,0,0,0,.51-.32L354,64a.5.5,0,0,1,.46-.31h14.05A.49.49,0,0,1,369,64l2.14,5.09a.48.48,0,0,0,.53.35h4.15L364.11,42a.5.5,0,0,0-.53-.35Zm-1,.16h0Zm8,17.92h-9.91a.49.49,0,0,1-.41-.22.52.52,0,0,1-.05-.47l5-11.76a.49.49,0,0,1,.46-.3h0a.51.51,0,0,1,.46.3l4.93,11.76a.5.5,0,0,1-.46.69Zm-9.15-1h8.4l-4.19-10Z"></path><path class="cls-1" d="M406.56,62.2a.69.69,0,0,1,.33.9c-2.51,4.93-7.15,7.4-12.95,7.4-8.26,0-14.54-5.1-14.54-15s6.28-15,14.54-15c5.8,0,10.4,2.43,12.91,7.36a.71.71,0,0,1-.29,1l-3.29,1.6a.64.64,0,0,1-.9-.29c-1.77-3.53-5.47-4.68-8.43-4.68-4.11,0-9.45,2.17-9.45,10s5.34,10,9.45,10c3,0,6.66-1.15,8.43-4.64a.62.62,0,0,1,.9-.33Z"></path><path class="cls-1" d="M393.94,71c-9.28,0-15-5.92-15-15.46s5.76-15.46,15-15.46c6.2,0,10.81,2.64,13.35,7.63a1.18,1.18,0,0,1-.47,1.6l-3.33,1.63a1.06,1.06,0,0,1-.83.1,1.2,1.2,0,0,1-.74-.62c-2.05-4.09-6.62-4.4-8-4.4-2.1,0-8.95.68-8.95,9.52s6.85,9.53,8.95,9.53c1.36,0,5.93-.32,8-4.37a1.14,1.14,0,0,1,.73-.64,1,1,0,0,1,.89.11l3.24,1.58h0a1.19,1.19,0,0,1,.55,1.58C404.82,68.28,400.06,71,393.94,71Zm0-29.92c-8.66,0-14,5.54-14,14.46S385.28,70,393.94,70c5.81,0,10.13-2.46,12.5-7.12a.18.18,0,0,0-.1-.23L402.94,61a.2.2,0,0,0-.12.12c-2.32,4.58-7.38,4.94-8.88,4.94-4.81,0-9.95-2.77-9.95-10.53S389.13,45,393.94,45c1.5,0,6.57.35,8.87,5a.22.22,0,0,0,.12.09l.12,0,3.29-1.6c.05,0,.13-.16.08-.24C404,43.53,399.74,41.08,393.94,41.08Z"></path><path class="cls-1" d="M417.61,69.23a.71.71,0,0,1-.7.69h-3.7a.71.71,0,0,1-.7-.69V41.86a.72.72,0,0,1,.7-.7h3.7a.72.72,0,0,1,.7.7Z"></path><path class="cls-1" d="M416.91,70.42h-3.7a1.21,1.21,0,0,1-1.2-1.19V41.86a1.22,1.22,0,0,1,1.2-1.2h3.7a1.22,1.22,0,0,1,1.2,1.2V69.23A1.21,1.21,0,0,1,416.91,70.42Zm-3.7-28.76a.23.23,0,0,0-.2.2V69.23a.22.22,0,0,0,.2.19h3.7a.22.22,0,0,0,.2-.19V41.86a.22.22,0,0,0-.2-.2Z"></path><path class="cls-1" d="M452.45,55.54c0,9.86-6.29,15-14.55,15s-14.54-5.1-14.54-15,6.28-15,14.54-15S452.45,45.68,452.45,55.54Zm-5.1,0c0-7.85-5.34-10-9.45-10s-9.45,2.17-9.45,10,5.34,10,9.45,10S447.35,63.39,447.35,55.54Zm-6.94-26.3a.66.66,0,0,1,1,.17l1.6,2.26a.7.7,0,0,1-.17.94l-6.53,4a.66.66,0,0,1-1-.21l-1.23-1.64c-.29-.33-.16-.7.17-1Z"></path><path class="cls-1" d="M437.9,71c-9.28,0-15-5.92-15-15.46s5.76-15.46,15-15.46S453,46,453,55.54,447.18,71,437.9,71Zm0-29.92c-8.66,0-14,5.54-14,14.46S429.24,70,437.9,70,452,64.46,452,55.54,446.57,41.08,437.9,41.08Zm0,25c-4.81,0-9.95-2.77-9.95-10.53S433.09,45,437.9,45s10,2.76,10,10.52S442.71,66.07,437.9,66.07Zm0-20c-2.1,0-8.95.68-8.95,9.52s6.85,9.53,8.95,9.53,9-.69,9-9.53S440,46,437.9,46Zm-2-8.74a1.24,1.24,0,0,1-1-.54l-1.24-1.65a1.06,1.06,0,0,1-.24-.91,1.45,1.45,0,0,1,.48-.75l6.19-4.59h0a1.14,1.14,0,0,1,1.66.27l1.62,2.28a1.21,1.21,0,0,1-.29,1.64l-6.56,4A1.23,1.23,0,0,1,435.89,37.28Zm4.81-7.63-6.16,4.56a.43.43,0,0,0-.12.18l.06.1,1.24,1.64c.15.2.19.17.3.09l6.55-4a.22.22,0,0,0,0-.26L441,29.7C440.88,29.56,440.84,29.56,440.7,29.65Z"></path><path class="cls-1" d="M462.18,41.16a1.25,1.25,0,0,1,1.11.58l14.38,19.51V41.86a.72.72,0,0,1,.7-.7h3.7a.72.72,0,0,1,.7.7V69.23a.71.71,0,0,1-.7.69h-3.7a1.26,1.26,0,0,1-1.11-.57L462.88,49.87V69.23a.71.71,0,0,1-.7.69h-3.7a.71.71,0,0,1-.69-.69V41.86a.72.72,0,0,1,.69-.7Z"></path><path class="cls-1" d="M482.07,70.42h-3.7a1.74,1.74,0,0,1-1.52-.79L463.38,51.39V69.23a1.21,1.21,0,0,1-1.2,1.19h-3.7a1.21,1.21,0,0,1-1.19-1.19V41.86a1.21,1.21,0,0,1,1.19-1.2h3.7a1.77,1.77,0,0,1,1.53.8l13.46,18.27V41.86a1.22,1.22,0,0,1,1.2-1.2h3.7a1.22,1.22,0,0,1,1.2,1.2V69.23A1.21,1.21,0,0,1,482.07,70.42ZM462.88,49.37a.48.48,0,0,1,.4.2l14.39,19.48a.76.76,0,0,0,.7.37h3.7a.21.21,0,0,0,.2-.19V41.86a.22.22,0,0,0-.2-.2h-3.7a.23.23,0,0,0-.2.2V61.25a.5.5,0,0,1-.34.48.52.52,0,0,1-.56-.18L462.89,42a.77.77,0,0,0-.71-.37h-3.7a.22.22,0,0,0-.19.2V69.23a.21.21,0,0,0,.19.19h3.7a.21.21,0,0,0,.2-.19V49.87a.5.5,0,0,1,.34-.47Z"></path><path class="cls-3" d="M172.32,100.88v4H179a.24.24,0,0,1,.27.27v1.32a.25.25,0,0,1-.27.27h-8.34a.24.24,0,0,1-.27-.27v-13a.24.24,0,0,1,.27-.27H179a.25.25,0,0,1,.27.27v1.32A.24.24,0,0,1,179,95h-6.68v4h5.38a.25.25,0,0,1,.27.27v1.32a.25.25,0,0,1-.27.27Z"></path><path class="cls-3" d="M193.55,106.47a.25.25,0,0,1-.28.27h-1.39a.51.51,0,0,1-.43-.22l-7.52-10.2v10.15a.25.25,0,0,1-.28.27h-1.39a.24.24,0,0,1-.27-.27v-13a.24.24,0,0,1,.27-.27h1.39a.51.51,0,0,1,.43.22l7.53,10.18V93.43a.24.24,0,0,1,.27-.27h1.39a.25.25,0,0,1,.28.27Z"></path><path class="cls-3" d="M211,93.16a.25.25,0,0,1,.27.27v1.32A.24.24,0,0,1,211,95h-3.55v11.45a.25.25,0,0,1-.27.27h-1.4a.25.25,0,0,1-.27-.27V95H202a.24.24,0,0,1-.27-.27V93.43a.25.25,0,0,1,.27-.27Z"></path><path class="cls-3" d="M215.55,100.88v4h6.67a.24.24,0,0,1,.27.27v1.32a.25.25,0,0,1-.27.27h-8.34a.25.25,0,0,1-.27-.27v-13a.25.25,0,0,1,.27-.27h8.34a.25.25,0,0,1,.27.27v1.32a.24.24,0,0,1-.27.27h-6.67v4h5.37a.24.24,0,0,1,.27.27v1.32a.24.24,0,0,1-.27.27Z"></path><path class="cls-3" d="M231.4,92.89a6.41,6.41,0,0,1,6.13,3.49.27.27,0,0,1-.14.37l-1.2.58a.28.28,0,0,1-.37-.13,4.68,4.68,0,0,0-4.42-2.45c-3.12,0-4.93,2.1-4.93,5.2s1.81,5.2,4.93,5.2a4.68,4.68,0,0,0,4.42-2.45.28.28,0,0,1,.37-.13l1.2.58a.27.27,0,0,1,.14.37A6.41,6.41,0,0,1,231.4,107c-3.9,0-6.87-2.52-6.87-7.06S227.5,92.89,231.4,92.89Z"></path><path class="cls-3" d="M251.73,106.47a.25.25,0,0,1-.27.27h-1.4a.53.53,0,0,1-.43-.22l-7.52-10.2v10.15a.25.25,0,0,1-.27.27h-1.4a.25.25,0,0,1-.27-.27v-13a.25.25,0,0,1,.27-.27h1.4a.5.5,0,0,1,.42.22l7.53,10.18V93.43a.25.25,0,0,1,.27-.27h1.4a.25.25,0,0,1,.27.27Z"></path><path class="cls-3" d="M261.31,107c-3.9,0-6.86-2.41-6.86-7.06s3-7.06,6.86-7.06,6.87,2.41,6.87,7.06S265.21,107,261.31,107Zm0-12.26c-3.12,0-4.92,1.88-4.92,5.2s1.8,5.2,4.92,5.2,4.93-1.88,4.93-5.2S264.44,94.75,261.31,94.75Z"></path><path class="cls-3" d="M270.71,93.43a.24.24,0,0,1,.27-.27h1.39a.24.24,0,0,1,.27.27v11.45h5.71a.24.24,0,0,1,.27.27v1.32a.25.25,0,0,1-.27.27H271a.24.24,0,0,1-.27-.27Z"></path><path class="cls-3" d="M286.84,107C283,107,280,104.6,280,100s3-7.06,6.86-7.06,6.87,2.41,6.87,7.06S290.74,107,286.84,107Zm0-12.26c-3.12,0-4.92,1.88-4.92,5.2s1.8,5.2,4.92,5.2,4.93-1.88,4.93-5.2S290,94.75,286.84,94.75Z"></path><path class="cls-3" d="M307.5,97.33a.26.26,0,0,1-.36-.13,4.69,4.69,0,0,0-4.43-2.45c-3.12,0-4.92,2.1-4.92,5.2s1.8,5.2,4.92,5.2c2.49,0,4.1-1.17,4.7-3.32H302a.24.24,0,0,1-.27-.27v-1.34A.24.24,0,0,1,302,100h7.33a.25.25,0,0,1,.27.27,6.56,6.56,0,0,1-6.87,6.79c-3.89,0-6.86-2.52-6.86-7.06s3-7.06,6.86-7.06a6.39,6.39,0,0,1,6.13,3.49.27.27,0,0,1-.13.37Z"></path><path class="cls-3" d="M313.87,87.75c.14-.08.29-.08.37.06l.68.93a.25.25,0,0,1-.08.37l-3.1,2a.28.28,0,0,1-.39-.08l-.45-.64A.27.27,0,0,1,311,90Zm-1.94,5.68a.25.25,0,0,1,.27-.27h1.4a.25.25,0,0,1,.27.27v13a.25.25,0,0,1-.27.27h-1.4a.25.25,0,0,1-.27-.27Z"></path><path class="cls-3" d="M329.56,106.49a.17.17,0,0,1-.15.25h-1.55a.4.4,0,0,1-.39-.25l-1.13-2.66h-7l-1.12,2.66a.37.37,0,0,1-.37.25h-1.55a.18.18,0,0,1-.18-.25l5.55-13.08a.4.4,0,0,1,.39-.25h1.57a.37.37,0,0,1,.37.25Zm-9.4-4.52h5.41l-2.72-6.4Z"></path><path class="cls-3" d="M333,103c.15,0,.25.08.31.22.23,1.24,1.45,1.88,3,1.88,1.77,0,2.8-.87,2.8-2.17,0-1.77-2.08-1.92-3.45-2.23-2.06-.47-4.19-1.36-4.19-3.86,0-2.78,2.27-4,4.79-4s4.38,1.32,4.69,3.51a.27.27,0,0,1-.23.33l-1.3.23c-.16,0-.25-.09-.31-.23a2.64,2.64,0,0,0-2.85-2c-1.77,0-2.85.8-2.85,2.1S335,98.71,336.78,99c2.06.41,4.31,1.26,4.31,3.94,0,2.52-2.1,4.05-4.74,4.05-2.38,0-4.49-1.13-4.86-3.43-.06-.16.07-.29.23-.31Z"></path><path class="cls-3" d="M350.21,93.43a.24.24,0,0,1,.27-.27h4.83c2.6,0,4.65,1.48,4.65,4.75a4.36,4.36,0,0,1-4.65,4.76h-3.16v3.8a.25.25,0,0,1-.27.27h-1.4a.24.24,0,0,1-.27-.27Zm5.1,7.37c1.8,0,2.71-1,2.71-2.89S357.11,95,355.31,95h-3.16v5.78Z"></path><path class="cls-3" d="M373.48,106.49a.16.16,0,0,1-.15.25h-1.55a.4.4,0,0,1-.39-.25l-1.13-2.66h-7l-1.12,2.66a.36.36,0,0,1-.37.25h-1.55a.18.18,0,0,1-.18-.25l5.55-13.08a.4.4,0,0,1,.39-.25h1.57a.37.37,0,0,1,.37.25Zm-9.4-4.52h5.41l-2.72-6.4Z"></path><path class="cls-3" d="M375.93,93.43a.25.25,0,0,1,.28-.27H381c2.6,0,4.66,1.48,4.66,4.75a4.26,4.26,0,0,1-3.07,4.46l2.91,4.15a.14.14,0,0,1-.11.22h-1.81a.5.5,0,0,1-.42-.22l-2.68-3.85h-2.64v3.8a.24.24,0,0,1-.27.27h-1.39a.25.25,0,0,1-.28-.27Zm5.1,7.37c1.81,0,2.72-1,2.72-2.89S382.84,95,381,95h-3.16v5.78Z"></path><path class="cls-3" d="M401.15,106.49a.17.17,0,0,1-.16.25h-1.55a.41.41,0,0,1-.39-.25l-1.12-2.66h-7l-1.13,2.66a.35.35,0,0,1-.36.25H387.9a.18.18,0,0,1-.17-.25l5.55-13.08a.39.39,0,0,1,.38-.25h1.57a.35.35,0,0,1,.37.25ZM391.74,102h5.41l-2.71-6.4Z"></path><path class="cls-3" d="M409.42,93.43a.24.24,0,0,1,.27-.27h1.4a.25.25,0,0,1,.27.27v11.45h5.7a.24.24,0,0,1,.27.27v1.32a.25.25,0,0,1-.27.27h-7.37a.24.24,0,0,1-.27-.27Z"></path><path class="cls-3" d="M432.4,106.49a.17.17,0,0,1-.15.25H430.7a.4.4,0,0,1-.39-.25l-1.13-2.66h-7l-1.12,2.66a.37.37,0,0,1-.37.25h-1.55a.18.18,0,0,1-.18-.25l5.55-13.08a.4.4,0,0,1,.39-.25h1.57a.37.37,0,0,1,.37.25ZM423,102h5.41l-2.72-6.4Z"></path><path class="cls-3" d="M442.26,103c.16,0,.25.08.31.22.23,1.24,1.46,1.88,3,1.88,1.76,0,2.79-.87,2.79-2.17,0-1.77-2.07-1.92-3.45-2.23-2.06-.47-4.19-1.36-4.19-3.86,0-2.78,2.27-4,4.79-4s4.38,1.32,4.69,3.51a.27.27,0,0,1-.23.33l-1.3.23c-.15,0-.25-.09-.31-.23a2.63,2.63,0,0,0-2.85-2c-1.77,0-2.85.8-2.85,2.1S444.26,98.71,446,99c2.06.41,4.31,1.26,4.31,3.94,0,2.52-2.09,4.05-4.73,4.05-2.39,0-4.5-1.13-4.87-3.43a.24.24,0,0,1,.23-.31Z"></path><path class="cls-3" d="M459.72,107c-3.9,0-6.86-2.41-6.86-7.06s3-7.06,6.86-7.06,6.87,2.41,6.87,7.06S463.62,107,459.72,107Zm0-12.26c-3.12,0-4.92,1.88-4.92,5.2s1.8,5.2,4.92,5.2,4.93-1.88,4.93-5.2S462.84,94.75,459.72,94.75Z"></path><path class="cls-3" d="M475.59,92.89a6.4,6.4,0,0,1,6.13,3.49.27.27,0,0,1-.14.37l-1.2.58a.28.28,0,0,1-.37-.13,4.66,4.66,0,0,0-4.42-2.45c-3.12,0-4.93,2.1-4.93,5.2s1.81,5.2,4.93,5.2A4.66,4.66,0,0,0,480,102.7a.28.28,0,0,1,.37-.13l1.2.58a.27.27,0,0,1,.14.37,6.4,6.4,0,0,1-6.13,3.49c-3.9,0-6.87-2.52-6.87-7.06S471.69,92.89,475.59,92.89Z"></path><path class="cls-3" d="M486.3,106.47a.24.24,0,0,1-.27.27h-1.4a.25.25,0,0,1-.27-.27v-13a.25.25,0,0,1,.27-.27H486a.24.24,0,0,1,.27.27Z"></path><path class="cls-3" d="M491.35,100.88v4H498a.24.24,0,0,1,.27.27v1.32a.25.25,0,0,1-.27.27h-8.34a.24.24,0,0,1-.27-.27v-13a.24.24,0,0,1,.27-.27H498a.25.25,0,0,1,.27.27v1.32A.24.24,0,0,1,498,95h-6.67v4h5.37a.25.25,0,0,1,.27.27v1.32a.25.25,0,0,1-.27.27Z"></path><path class="cls-3" d="M505.76,93.16c3.74,0,6.59,2.29,6.59,6.79s-2.85,6.79-6.59,6.79h-4.67a.25.25,0,0,1-.28-.27v-13a.25.25,0,0,1,.28-.27Zm0,11.72c2.95,0,4.65-1.81,4.65-4.93S508.71,95,505.76,95h-3v9.86Z"></path><path class="cls-3" d="M527.23,106.49a.17.17,0,0,1-.15.25h-1.55a.4.4,0,0,1-.39-.25L524,103.83h-7l-1.12,2.66a.37.37,0,0,1-.37.25H514a.18.18,0,0,1-.18-.25l5.55-13.08a.4.4,0,0,1,.39-.25h1.57a.37.37,0,0,1,.37.25Zm-9.4-4.52h5.41l-2.72-6.4Z"></path><path class="cls-3" d="M534.63,93.16c3.74,0,6.59,2.29,6.59,6.79s-2.85,6.79-6.59,6.79H530a.25.25,0,0,1-.27-.27v-13a.25.25,0,0,1,.27-.27Zm0,11.72c2.94,0,4.65-1.81,4.65-4.93S537.57,95,534.63,95h-3v9.86Z"></path></g></g></svg>